<svg width="14" height="20" viewBox="0 0 14 20" fill="none" xmlns="http://www.w3.org/2000/svg">
<path d="M14 20H0V0H14V20Z" stroke="#E5E7EB"/>
<g clip-path="url(#clip0_16_2930)">
<path d="M4.375 2.75C3.72695 2.75 3.16094 3.10273 2.86016 3.625H1.3125C0.587891 3.625 0 4.21289 0 4.9375V13.6875C0 14.4121 0.587891 15 1.3125 15H5.25V7.5625C5.25 6.35391 6.22891 5.375 7.4375 5.375H8.75V4.9375C8.75 4.21289 8.16211 3.625 7.4375 3.625H5.88984C5.58906 3.10273 5.02305 2.75 4.375 2.75ZM7.4375 6.25C6.71289 6.25 6.125 6.83789 6.125 7.5625V15V15.4375C6.125 16.1621 6.71289 16.75 7.4375 16.75H12.6875C13.4121 16.75 14 16.1621 14 15.4375V9.41914C14 9.07187 13.8605 8.73828 13.6145 8.49219L11.7578 6.63555C11.5117 6.38945 11.1781 6.25 10.8309 6.25H8.75H7.4375ZM4.375 3.84375C4.54905 3.84375 4.71597 3.91289 4.83904 4.03596C4.96211 4.15903 5.03125 4.32595 5.03125 4.5C5.03125 4.67405 4.96211 4.84097 4.83904 4.96404C4.71597 5.08711 4.54905 5.15625 4.375 5.15625C4.20095 5.15625 4.03403 5.08711 3.91096 4.96404C3.78789 4.84097 3.71875 4.67405 3.71875 4.5C3.71875 4.32595 3.78789 4.15903 3.91096 4.03596C4.03403 3.91289 4.20095 3.84375 4.375 3.84375Z" fill="#374151"/>
</g>
<defs>
<clipPath id="clip0_16_2930">
<path d="M0 2.75H14V16.75H0V2.75Z" fill="white"/>
</clipPath>
</defs>
</svg>
